<svg xmlns="http://www.w3.org/2000/svg" viewBox="0 0 32 32">
  <defs>
    <linearGradient id="g" x1="5" y1="3" x2="27" y2="29" gradientUnits="userSpaceOnUse">
      <stop offset="0%" stop-color="#54bb44"/>
      <stop offset="42%" stop-color="#2b871f"/>
      <stop offset="100%" stop-color="#0d9488"/>
    </linearGradient>
  </defs>
  <rect width="32" height="32" rx="9" fill="url(#g)"/>
  <path d="M4.5 26.8 10.2 20.6 14.2 23.2 18.4 18.2 22.2 20.8 27.5 16.2" fill="none" stroke="white" stroke-width="1.15" stroke-linecap="round" stroke-linejoin="round" opacity="0.38"/>
  <path d="M6 25.2h20l-2-4.2H8z" fill="white" opacity="0.22"/>
  <path d="M8.4 21 23.6 21l-2-3.6H10.4z" fill="white" opacity="0.36"/>
  <path d="M10.6 17.4h10.8l-2-3.2h-6.8z" fill="white" opacity="0.52"/>
  <path d="M12.8 14.2h6.4l-1.6-2.6h-3.2z" fill="white" opacity="0.72"/>
  <path d="M16 24.2v-11.8" stroke="white" stroke-width="1" stroke-dasharray="1.6 2.2" stroke-linecap="round" opacity="0.55"/>
  <circle cx="16" cy="23.8" r="1.05" fill="white" opacity="0.85"/>
  <circle cx="16" cy="20.2" r="1.05" fill="white" opacity="0.92"/>
  <circle cx="16" cy="16.6" r="1.05" fill="white"/>
  <circle cx="16" cy="13.1" r="1.05" fill="white"/>
  <path d="M9.2 19.4c-1.6-1.4-1.4-3.4 0-4.6 1.4 1.2 1.6 3.2 0 4.6z" fill="#bef264" opacity="0.95"/>
  <circle cx="16" cy="8.8" r="3.1" fill="none" stroke="white" stroke-width="1.35"/>
  <circle cx="16" cy="8.8" r="1.05" fill="white"/>
  <path d="M13.2 6h5.6M13.2 11.6h5.6M10.6 8.8h1.2M20.2 8.8h1.2" stroke="white" stroke-width="0.85" stroke-linecap="round" opacity="0.7"/>
</svg>
